<svg width="29" height="29" viewBox="0 0 29 29" fill="none" xmlns="http://www.w3.org/2000/svg">
<path d="M4.80555 11.89C4.85416 11.2843 5.12909 10.7193 5.57559 10.3072C6.0221 9.89522 6.60741 9.6665 7.21497 9.66663H21.7851C22.3926 9.6665 22.9779 9.89522 23.4244 10.3072C23.8709 10.7193 24.1459 11.2843 24.1945 11.89L25.1648 23.9733C25.1914 24.3058 25.149 24.6403 25.0401 24.9556C24.9312 25.2709 24.7582 25.5603 24.532 25.8054C24.3057 26.0506 24.0312 26.2463 23.7257 26.3802C23.4201 26.514 23.0901 26.5832 22.7566 26.5833H6.24347C5.90987 26.5832 5.57991 26.514 5.27436 26.3802C4.96881 26.2463 4.69428 26.0506 4.46806 25.8054C4.24184 25.5603 4.06883 25.2709 3.95993 24.9556C3.85102 24.6403 3.80857 24.3058 3.83526 23.9733L4.80555 11.89V11.89Z" stroke="white" stroke-width="2" stroke-linecap="round" stroke-linejoin="round"/>
<path d="M19.3333 13.2916V7.24996C19.3333 5.96808 18.8241 4.7387 17.9176 3.83228C17.0112 2.92585 15.7818 2.41663 14.5 2.41663C13.2181 2.41663 11.9887 2.92585 11.0823 3.83228C10.1759 4.7387 9.66663 5.96808 9.66663 7.24996V13.2916" stroke="white" stroke-width="2" stroke-linecap="round" stroke-linejoin="round"/>
</svg>
