<svg width="50" height="50" viewBox="0 0 50 50" fill="none" xmlns="http://www.w3.org/2000/svg">
<g clip-path="url(#clip0_100_109)">
<path d="M48.9582 13.5565C48.675 12.5466 48.1236 11.6322 47.3623 10.9107C46.5796 10.1669 45.6202 9.6349 44.5748 9.36482C40.6623 8.33357 24.9873 8.33357 24.9873 8.33357C18.4526 8.25922 11.9195 8.58623 5.42482 9.31274C4.37938 9.60277 3.42183 10.1467 2.63732 10.8961C1.86649 11.6377 1.30815 12.5523 1.01649 13.5544C0.315848 17.3289 -0.0245707 21.1614 -0.000179045 25.0002C-0.025179 28.8357 0.314404 32.6669 1.01649 36.4461C1.3019 37.444 1.85815 38.3544 2.63107 39.0898C3.40399 39.8252 4.36649 40.3565 5.42482 40.6377C9.3894 41.6669 24.9873 41.6669 24.9873 41.6669C31.5304 41.7414 38.0718 41.4144 44.5748 40.6877C45.6202 40.4177 46.5796 39.8857 47.3623 39.1419C48.1233 38.4205 48.6741 37.506 48.9561 36.4961C49.675 32.7231 50.0246 28.889 49.9998 25.0482C50.0539 21.1911 49.7048 17.3389 48.9582 13.5544V13.5565ZM20.004 32.1336V17.869L33.0457 25.0023L20.004 32.1336Z" fill="#E8E8E8"/>
</g>
<defs>
<clipPath id="clip0_100_109">
<rect width="50" height="50" fill="white"/>
</clipPath>
</defs>
</svg>
