<svg width="29" height="29" viewBox="0 0 29 29" fill="none" xmlns="http://www.w3.org/2000/svg">
<path d="M14.5 14.5C17.8368 14.5 20.5417 11.795 20.5417 8.45829C20.5417 5.12157 17.8368 2.41663 14.5 2.41663C11.1633 2.41663 8.45837 5.12157 8.45837 8.45829C8.45837 11.795 11.1633 14.5 14.5 14.5Z" stroke="white" stroke-width="2"/>
<path d="M20.5417 16.9166H20.967C21.8504 16.9169 22.7033 17.2397 23.3655 17.8244C24.0276 18.4092 24.4535 19.2156 24.563 20.0921L25.0355 23.867C25.078 24.207 25.0477 24.5522 24.9466 24.8797C24.8454 25.2071 24.6758 25.5093 24.449 25.7662C24.2222 26.0231 23.9433 26.2288 23.6309 26.3697C23.3185 26.5106 22.9797 26.5834 22.6369 26.5833H6.36312C6.02041 26.5834 5.68161 26.5106 5.3692 26.3697C5.05678 26.2288 4.77791 26.0231 4.55107 25.7662C4.32423 25.5093 4.15463 25.2071 4.05351 24.8797C3.9524 24.5522 3.92208 24.207 3.96457 23.867L4.43582 20.0921C4.54542 19.2151 4.97162 18.4084 5.63429 17.8236C6.29696 17.2388 7.15044 16.9163 8.03424 16.9166H8.45837" stroke="white" stroke-width="2" stroke-linecap="round" stroke-linejoin="round"/>
</svg>
