<svg width="50" height="50" viewBox="0 0 50 50" fill="none" xmlns="http://www.w3.org/2000/svg">
<path d="M25 6.25C37.0812 6.25 46.875 13.8833 46.875 23.3021C46.875 32.7187 37.0812 40.3521 25 40.3521C23.797 40.3527 22.5953 40.2762 21.4021 40.1229L12.2187 46.1292C11.175 46.6812 10.8063 46.6208 11.2354 45.2687L13.0937 37.6062C7.09375 34.5646 3.125 29.2937 3.125 23.3021C3.125 13.8854 12.9187 6.25 25 6.25ZM37.3062 23.0417L40.3688 20.075C40.5455 19.8915 40.644 19.6465 40.6437 19.3918C40.6434 19.137 40.5443 18.8923 40.3671 18.7092C40.1899 18.5261 39.9486 18.4189 39.694 18.4102C39.4394 18.4015 39.1913 18.4919 39.0021 18.6625L34.9854 22.55V19.3375C34.9854 19.0767 34.8818 18.8266 34.6974 18.6422C34.513 18.4578 34.2629 18.3542 34.0021 18.3542C33.7413 18.3542 33.4912 18.4578 33.3068 18.6422C33.1223 18.8266 33.0187 19.0767 33.0187 19.3375V24.6646C32.9819 24.8165 32.9819 24.9751 33.0187 25.1271V28.125C33.0187 28.3858 33.1223 28.6359 33.3068 28.8203C33.4912 29.0047 33.7413 29.1083 34.0021 29.1083C34.2629 29.1083 34.513 29.0047 34.6974 28.8203C34.8818 28.6359 34.9854 28.3858 34.9854 28.125V25.2854L35.875 24.425L38.85 28.6604C38.9243 28.7662 39.0187 28.8562 39.1277 28.9255C39.2368 28.9948 39.3585 29.0419 39.4858 29.0641C39.6131 29.0864 39.7435 29.0833 39.8696 29.0552C39.9958 29.027 40.1151 28.9743 40.2208 28.9C40.3266 28.8257 40.4166 28.7313 40.4859 28.6222C40.5552 28.5132 40.6023 28.3915 40.6245 28.2642C40.6468 28.1369 40.6437 28.0065 40.6156 27.8804C40.5874 27.7542 40.5347 27.6349 40.4604 27.5292L37.3062 23.0396V23.0417ZM31.1437 27.05H28.1021V19.3687C28.0904 19.1161 27.9819 18.8776 27.7989 18.7029C27.616 18.5282 27.3728 18.4307 27.1198 18.4307C26.8668 18.4307 26.6236 18.5282 26.4407 18.7029C26.2577 18.8776 26.1491 19.1161 26.1375 19.3687V28.0333C26.1375 28.575 26.575 29.0167 27.1187 29.0167H31.1437C31.4045 29.0167 31.6547 28.9131 31.8391 28.7287C32.0235 28.5442 32.1271 28.2941 32.1271 28.0333C32.1271 27.7725 32.0235 27.5224 31.8391 27.338C31.6547 27.1536 31.4045 27.05 31.1437 27.05ZM18.9417 24.775L20.3917 21.2187L21.7208 24.775H18.9417ZM24.1979 25.7917L24.2021 25.7583C24.2016 25.5106 24.107 25.2723 23.9375 25.0917L21.7583 19.2583C21.667 18.9803 21.493 18.7369 21.2596 18.5604C21.0261 18.3839 20.7444 18.2829 20.4521 18.2708C20.1576 18.2695 19.8697 18.3579 19.6266 18.5243C19.3836 18.6907 19.197 18.9271 19.0917 19.2021L15.6312 27.6917C15.5824 27.8112 15.5576 27.9392 15.5582 28.0684C15.5589 28.1975 15.5849 28.3253 15.6349 28.4443C15.685 28.5634 15.7579 28.6715 15.8497 28.7623C15.9415 28.8532 16.0502 28.9251 16.1698 28.974C16.2893 29.0228 16.4174 29.0476 16.5465 29.047C16.6756 29.0463 16.8034 29.0203 16.9225 28.9703C17.0415 28.9202 17.1496 28.8473 17.2405 28.7555C17.3313 28.6637 17.4032 28.555 17.4521 28.4354L18.1396 26.7417H22.4521L23.075 28.4083C23.1173 28.5329 23.1843 28.6477 23.2718 28.746C23.3593 28.8442 23.4657 28.9239 23.5846 28.9803C23.7035 29.0367 23.8325 29.0686 23.9639 29.0743C24.0954 29.0799 24.2266 29.0591 24.3499 29.0131C24.4732 28.9671 24.586 28.8968 24.6816 28.8064C24.7772 28.716 24.8537 28.6073 24.9065 28.4868C24.9594 28.3663 24.9875 28.2364 24.9893 28.1048C24.991 27.9733 24.9663 27.8427 24.9167 27.7208L24.1979 25.7917ZM17.2771 19.3792C17.2771 19.1187 17.1738 18.8689 16.9898 18.6846C16.8058 18.5002 16.5563 18.3964 16.2958 18.3958H9.53542C9.27462 18.3958 9.02451 18.4994 8.84009 18.6838C8.65568 18.8683 8.55208 19.1184 8.55208 19.3792C8.55208 19.64 8.65568 19.8901 8.84009 20.0745C9.02451 20.2589 9.27462 20.3625 9.53542 20.3625H11.9521V28.1458C11.9521 28.4066 12.0557 28.6567 12.2401 28.8412C12.4245 29.0256 12.6746 29.1292 12.9354 29.1292C13.1962 29.1292 13.4463 29.0256 13.6307 28.8412C13.8151 28.6567 13.9187 28.4066 13.9187 28.1458V20.3625H16.2937C16.5545 20.3625 16.8047 20.2589 16.9891 20.0745C17.1735 19.8901 17.2771 19.64 17.2771 19.3792Z" fill="#E8E8E8"/>
</svg>
